<svg xmlns="http://www.w3.org/2000/svg" xmlns:xlink="http://www.w3.org/1999/xlink" width="500" zoomAndPan="magnify" viewBox="0 0 375 374.999991" height="500" preserveAspectRatio="xMidYMid meet" version="1.0"><defs><clipPath id="7cf6d383fb"><path d="M 188 302 L 213 302 L 213 374.71875 L 188 374.71875 Z M 188 302 " clip-rule="nonzero"/></clipPath><clipPath id="f131de884f"><path d="M 0 0.46875 L 91 0.46875 L 91 177 L 0 177 Z M 0 0.46875 " clip-rule="nonzero"/></clipPath><clipPath id="51428756d7"><path d="M 66 202 L 182 202 L 182 374.71875 L 66 374.71875 Z M 66 202 " clip-rule="nonzero"/></clipPath><clipPath id="e02479c660"><path d="M 0 0.46875 L 179 0.46875 L 179 268 L 0 268 Z M 0 0.46875 " clip-rule="nonzero"/></clipPath><clipPath id="1c36e97bae"><path d="M 144 0.46875 L 213 0.46875 L 213 237 L 144 237 Z M 144 0.46875 " clip-rule="nonzero"/></clipPath><clipPath id="dfcccdaef2"><path d="M 275 0.46875 L 375 0.46875 L 375 268 L 275 268 Z M 275 0.46875 " clip-rule="nonzero"/></clipPath><clipPath id="0e0f2f24c1"><path d="M 206 0.46875 L 335 0.46875 L 335 374.71875 L 206 374.71875 Z M 206 0.46875 " clip-rule="nonzero"/></clipPath><clipPath id="fd561472b9"><path d="M 62 67 L 276 67 L 276 374.71875 L 62 374.71875 Z M 62 67 " clip-rule="nonzero"/></clipPath><clipPath id="b35a3e6d9e"><path d="M 0 284 L 92 284 L 92 374.71875 L 0 374.71875 Z M 0 284 " clip-rule="nonzero"/></clipPath><clipPath id="046bf9a25b"><path d="M 0.46875 60 L 188 60 L 188 189 L 0.46875 189 Z M 0.46875 60 " clip-rule="nonzero"/></clipPath><clipPath id="7ea04c0ff6"><path d="M 12 0.46875 L 188 0.46875 L 188 188 L 12 188 Z M 12 0.46875 " clip-rule="nonzero"/></clipPath><clipPath id="3af62d2382"><path d="M 0.46875 188 L 187 188 L 187 221 L 0.46875 221 Z M 0.46875 188 " clip-rule="nonzero"/></clipPath><clipPath id="a727b577e1"><path d="M 103 0.46875 L 188 0.46875 L 188 188 L 103 188 Z M 103 0.46875 " clip-rule="nonzero"/></clipPath><clipPath id="feb6de2248"><path d="M 0.46875 136 L 187 136 L 187 189 L 0.46875 189 Z M 0.46875 136 " clip-rule="nonzero"/></clipPath><clipPath id="0377f82fe4"><path d="M 0.46875 188 L 188 188 L 188 292 L 0.46875 292 Z M 0.46875 188 " clip-rule="nonzero"/></clipPath><clipPath id="11bef1d53b"><path d="M 189 122 L 374.71875 122 L 374.71875 188.824219 L 189 188.824219 Z M 189 122 " clip-rule="nonzero"/></clipPath><clipPath id="0db3732afe"><path d="M 189 40.078125 L 374.71875 40.078125 L 374.71875 187.945312 L 189 187.945312 Z M 189 40.078125 " clip-rule="nonzero"/></clipPath><clipPath id="7329588a7c"><path d="M 171 0.46875 L 192 0.46875 L 192 188 L 171 188 Z M 171 0.46875 " clip-rule="nonzero"/></clipPath><clipPath id="c960cc75bf"><path d="M 188 0.46875 L 257 0.46875 L 257 188 L 188 188 Z M 188 0.46875 " clip-rule="nonzero"/></clipPath><clipPath id="6acedb3850"><path d="M 188 0.46875 L 341 0.46875 L 341 188 L 188 188 Z M 188 0.46875 " clip-rule="nonzero"/></clipPath><clipPath id="d0ec2c3b14"><path d="M 188 189 L 374.71875 189 L 374.71875 370 L 188 370 Z M 188 189 " clip-rule="nonzero"/></clipPath><clipPath id="248a092dfe"><path d="M 188 189 L 236 189 L 236 374.71875 L 188 374.71875 Z M 188 189 " clip-rule="nonzero"/></clipPath><clipPath id="a468ab3457"><path d="M 81.445312 189 L 187.945312 189 L 187.945312 374.71875 L 81.445312 374.71875 Z M 81.445312 189 " clip-rule="nonzero"/></clipPath><clipPath id="b77daf3e15"><path d="M 189 186.183594 L 374.71875 186.183594 L 374.71875 209.949219 L 189 209.949219 Z M 189 186.183594 " clip-rule="nonzero"/></clipPath><clipPath id="aecfd50bc9"><path d="M 189 188.824219 L 374.71875 188.824219 L 374.71875 276.84375 L 189 276.84375 Z M 189 188.824219 " clip-rule="nonzero"/></clipPath><clipPath id="e0b6586586"><path d="M 188 189 L 311 189 L 311 374.71875 L 188 374.71875 Z M 188 189 " clip-rule="nonzero"/></clipPath><clipPath id="cb48b0de75"><path d="M 152 190 L 187.945312 190 L 187.945312 374.71875 L 152 374.71875 Z M 152 190 " clip-rule="nonzero"/></clipPath><clipPath id="773e600880"><path d="M 0.46875 188 L 190 188 L 190 374.71875 L 0.46875 374.71875 Z M 0.46875 188 " clip-rule="nonzero"/></clipPath></defs><path fill="#b74652" d="M 346.710938 93.671875 C 353.425781 55.035156 375.425781 31.785156 363.722656 28.878906 C 348.371094 25.070312 297.773438 89.5625 314.46875 146.785156 C 326.398438 187.667969 356.402344 207.613281 374.585938 213.433594 L 374.585938 185.480469 C 366.929688 175.914062 355.296875 160.496094 349.246094 141.683594 C 342.203125 119.765625 346.710938 93.671875 346.710938 93.671875 " fill-opacity="1" fill-rule="nonzero"/><path fill="#b74652" d="M 366.832031 113.496094 C 367.816406 126.90625 370.832031 138.6875 374.585938 148.339844 L 374.585938 72.851562 C 369.246094 83.171875 365.589844 96.496094 366.832031 113.496094 " fill-opacity="1" fill-rule="nonzero"/><g clip-path="url(#7cf6d383fb)"><path fill="#b74652" d="M 190.671875 302.433594 C 185.308594 306.449219 192.136719 323.15625 193.683594 341.558594 C 194.957031 356.695312 192.007812 375 192.007812 375 L 212.445312 375 C 212.671875 337.589844 196.03125 298.421875 190.671875 302.433594 " fill-opacity="1" fill-rule="nonzero"/></g><path fill="#b74652" d="M 14.285156 214.078125 C 19.824219 207.933594 10.574219 198.558594 3.488281 189.75 C 2.484375 188.5 1.320312 187.0625 0.0546875 185.480469 L 0.0546875 213.433594 C 7.320312 215.761719 12.707031 215.832031 14.285156 214.078125 " fill-opacity="1" fill-rule="nonzero"/><path fill="#b74652" d="M 302.894531 249.261719 C 284.949219 229.839844 274.757812 191.078125 268.726562 190.410156 C 262.695312 189.742188 259.890625 225.097656 279.445312 261.636719 C 308.253906 315.476562 353.480469 331.863281 374.585938 334.871094 L 374.585938 284.042969 C 374.585938 284.042969 334.722656 283.707031 302.894531 249.261719 " fill-opacity="1" fill-rule="nonzero"/><g clip-path="url(#f131de884f)"><path fill="#b74652" d="M 21.167969 176.367188 C 25.609375 173.019531 18.210938 151.285156 17.46875 132.222656 C 16.726562 113.164062 18.039062 92.957031 28.738281 74.027344 C 37.621094 58.308594 53.460938 47.363281 71.253906 31.511719 C 88.292969 16.328125 90.484375 0.46875 90.484375 0.46875 L 53.445312 0.46875 C 51.089844 16.074219 47.632812 25.4375 23.390625 45.613281 C 18 50.097656 7.421875 58.613281 0.0546875 72.851562 L 0.0546875 148.339844 C 7.625 167.820312 18.199219 178.601562 21.167969 176.367188 " fill-opacity="1" fill-rule="nonzero"/></g><g clip-path="url(#51428756d7)"><path fill="#b74652" d="M 104.925781 258.3125 C 87.128906 247.4375 79.636719 233.34375 84.828125 225.207031 C 90.003906 217.089844 101.316406 219.464844 110.957031 225.039062 C 120.503906 230.554688 132.085938 243.679688 139.429688 255.300781 C 158.191406 284.980469 160.871094 319.507812 160.871094 319.507812 C 152.160156 290.414062 127.371094 272.023438 104.925781 258.3125 Z M 171.238281 289.726562 C 154.164062 240.566406 122.664062 202.785156 94.191406 202.785156 C 65.714844 202.785156 58.011719 230.875 76.769531 257.292969 C 95.152344 283.171875 126.015625 290.394531 140.085938 315.140625 C 151.769531 335.691406 153.203125 358.875 144.777344 375 L 178.945312 375 C 178.945312 375 189.300781 341.726562 171.238281 289.726562 " fill-opacity="1" fill-rule="nonzero"/></g><g clip-path="url(#e02479c660)"><path fill="#b74652" d="M 43.269531 250.9375 C 64.039062 228.199219 57.003906 186.730469 54.660156 156.96875 C 52.316406 127.210938 51.96875 95.09375 67.726562 78.054688 C 87.824219 56.316406 120.65625 55.3125 147.453125 40.597656 C 174.253906 25.882812 178.945312 0.46875 178.945312 0.46875 L 144.777344 0.46875 C 136.582031 15.492188 116.632812 14.179688 89.5 29.898438 C 63.804688 44.78125 46.285156 71.367188 41.261719 99.457031 C 36.234375 127.542969 46.183594 180.136719 36.90625 203.453125 C 26.386719 229.890625 0.0976562 229.871094 0.0546875 229.871094 L 0.0546875 267.65625 C 0.0976562 267.660156 25.871094 269.988281 43.269531 250.9375 " fill-opacity="1" fill-rule="nonzero"/></g><g clip-path="url(#1c36e97bae)"><path fill="#b74652" d="M 173.921875 39.929688 C 161.914062 50.992188 146.992188 53.648438 145.03125 60.65625 C 143.394531 66.515625 152.980469 74.386719 160.351562 85.074219 C 164.246094 90.714844 177.605469 105.640625 181.457031 140.75 C 184.441406 167.9375 185.113281 215.171875 197.117188 231.011719 C 199.921875 234.714844 204.285156 237.691406 207.566406 236.320312 C 213.609375 233.789062 201.558594 208.96875 197.035156 187.398438 C 192.511719 165.832031 190.503906 131.722656 193.519531 95.605469 C 196.53125 59.492188 212.292969 41.296875 212.445312 0.46875 L 192.007812 0.46875 C 192.007812 0.46875 190.019531 25.097656 173.921875 39.929688 " fill-opacity="1" fill-rule="nonzero"/></g><path fill="#b74652" d="M 280.949219 17.917969 C 276.515625 18.859375 278.097656 42.304688 268.765625 73.011719 C 262.054688 95.097656 255.21875 113.761719 250.667969 126.273438 C 243.386719 146.273438 237.308594 166.679688 237.703125 192.714844 C 238.074219 217.289062 245.378906 237.417969 247.734375 242.210938 C 250.089844 247.003906 262.707031 273.519531 268.582031 271.074219 C 274.460938 268.628906 252.027344 232.5625 255.960938 181.144531 C 260.878906 116.878906 281.066406 79.074219 286.523438 53.445312 C 291.976562 27.8125 284.898438 17.074219 280.949219 17.917969 " fill-opacity="1" fill-rule="nonzero"/><g clip-path="url(#dfcccdaef2)"><path fill="#b74652" d="M 291.914062 69.632812 C 274.121094 110.660156 267.632812 164.09375 287.820312 203.453125 C 309.257812 245.25 344.390625 267.195312 374.582031 267.65625 L 374.585938 267.65625 L 374.585938 229.871094 L 374.582031 229.871094 C 374.539062 229.875 359.890625 230.578125 346.246094 223.164062 C 327.375 212.910156 308.390625 190.941406 299.34375 158.042969 C 283.386719 100.011719 333.507812 46.949219 334.386719 0.46875 L 311.9375 0.46875 C 311.9375 0.46875 313.09375 20.796875 291.914062 69.632812 " fill-opacity="1" fill-rule="nonzero"/></g><g clip-path="url(#0e0f2f24c1)"><path fill="#b74652" d="M 294.519531 311.796875 C 254.46875 273.101562 233.832031 242.832031 228.480469 216.070312 C 221.730469 182.328125 225.78125 144.535156 250.75 87.847656 C 261.183594 64.160156 268.335938 44.277344 271.871094 28.75 C 273.136719 23.199219 274.0625 18.648438 274.667969 14.292969 C 275.777344 6.332031 275.929688 0.46875 275.929688 0.46875 L 258.339844 0.46875 C 256.15625 67.613281 224.4375 111.476562 224.4375 111.476562 C 242.324219 59.515625 241.757812 0.46875 241.757812 0.46875 L 224.171875 0.46875 C 225.113281 70.3125 199.46875 128.347656 208.425781 193.753906 C 216.460938 252.421875 247.433594 280.539062 278.105469 312.464844 C 296.675781 331.796875 305.332031 344.300781 309.128906 355.261719 C 312.730469 365.648438 311.9375 375 311.9375 375 L 334.386719 375 C 334.84375 344.386719 307.839844 324.667969 294.519531 311.796875 " fill-opacity="1" fill-rule="nonzero"/></g><g clip-path="url(#fd561472b9)"><path fill="#b74652" d="M 94.527344 132.222656 C 73.894531 98.179688 94.527344 79.554688 111.109375 85.074219 C 127.691406 90.589844 144.273438 119.183594 150.304688 141.253906 C 156.335938 163.324219 162.867188 208.96875 162.867188 208.96875 C 141.257812 170.847656 110.941406 159.308594 94.527344 132.222656 Z M 246.28125 314.808594 C 210.433594 277.851562 192.007812 252.105469 181.457031 212.480469 C 170.90625 172.855469 175.425781 129.714844 157.839844 98.113281 C 140.253906 66.515625 96.03125 58.488281 74.929688 79.554688 C 53.824219 100.625 58.148438 143.429688 93.519531 175.863281 C 136.734375 215.488281 227.6875 273.675781 224.171875 375 L 241.757812 375 C 241.816406 341.425781 230.511719 317.808594 230.511719 317.808594 C 260.492188 339.925781 258.339844 375 258.339844 375 L 275.929688 375 C 275.929688 375 277.582031 347.078125 246.28125 314.808594 " fill-opacity="1" fill-rule="nonzero"/></g><g clip-path="url(#b35a3e6d9e)"><path fill="#b74652" d="M 83.230469 321.015625 C 75.132812 305.324219 62.652344 295.941406 50.585938 291.660156 C 37.511719 287.019531 23.296875 285.585938 0.0546875 284.042969 L 0.0546875 334.871094 C 0.0546875 334.871094 18.988281 337.140625 26.546875 339.234375 C 32.492188 340.878906 42.46875 342.226562 49.320312 351.886719 C 54.886719 359.730469 53.445312 375 53.445312 375 L 90.484375 375 C 90.484375 375 94.753906 343.339844 83.230469 321.015625 " fill-opacity="1" fill-rule="nonzero"/></g><g clip-path="url(#046bf9a25b)"><path fill="#fbc561" d="M 0.472656 60.144531 L 0.472656 88.417969 L 184.152344 186.570312 L 187.257812 188.035156 L 0.472656 60.144531 " fill-opacity="1" fill-rule="nonzero"/></g><g clip-path="url(#7ea04c0ff6)"><path fill="#fbc561" d="M 47.761719 0.472656 L 12.535156 0.472656 L 187.460938 187.738281 L 186.128906 185.703125 L 47.761719 0.472656 " fill-opacity="1" fill-rule="nonzero"/></g><g clip-path="url(#3af62d2382)"><path fill="#fbc561" d="M 0.472656 199.855469 L 0.472656 220.800781 L 183.527344 189.476562 L 186.507812 188.773438 L 0.472656 199.855469 " fill-opacity="1" fill-rule="nonzero"/></g><g clip-path="url(#a727b577e1)"><path fill="#fbc561" d="M 103.902344 0.472656 L 187.707031 187.375 L 127.75 0.472656 Z M 103.902344 0.472656 " fill-opacity="1" fill-rule="nonzero"/></g><g clip-path="url(#feb6de2248)"><path fill="#fbc561" d="M 0.472656 136.730469 L 0.472656 158.4375 L 186.945312 188.160156 Z M 0.472656 136.730469 " fill-opacity="1" fill-rule="nonzero"/></g><g clip-path="url(#0377f82fe4)"><path fill="#fbc561" d="M 0.472656 291.289062 L 187.445312 188.808594 L 186.027344 189.3125 L 0.472656 265.878906 L 0.472656 291.289062 " fill-opacity="1" fill-rule="nonzero"/></g><g clip-path="url(#11bef1d53b)"><path fill="#fbc561" d="M 374.714844 122.296875 L 189.519531 188.070312 L 374.714844 144.710938 Z M 374.714844 122.296875 " fill-opacity="1" fill-rule="nonzero"/></g><g clip-path="url(#0db3732afe)"><path fill="#fbc561" d="M 374.714844 40.269531 L 189.035156 187.933594 L 191.675781 186.484375 L 374.714844 71.136719 L 374.714844 40.269531 " fill-opacity="1" fill-rule="nonzero"/></g><g clip-path="url(#7329588a7c)"><path fill="#fbc561" d="M 171.078125 0.472656 L 187.464844 182.695312 L 188.097656 187.203125 L 188.34375 184.054688 L 191.699219 0.472656 L 171.078125 0.472656 " fill-opacity="1" fill-rule="nonzero"/></g><path fill="#fbc561" d="M 188.164062 187.675781 L 188.226562 188.160156 L 188.175781 188.25 L 188.105469 187.988281 L 188.066406 188.1875 L 188.132812 188.324219 L 188.113281 188.34375 L 188.15625 188.390625 L 188.179688 188.355469 L 188.199219 188.359375 L 188.191406 188.316406 L 188.234375 188.191406 L 188.253906 188.316406 L 188.273438 188.097656 L 188.265625 188.105469 L 188.292969 187.007812 L 188.164062 187.675781 " fill-opacity="1" fill-rule="nonzero"/><g clip-path="url(#c960cc75bf)"><path fill="#fbc561" d="M 233.957031 0.472656 L 188.558594 187.304688 L 256.667969 0.472656 Z M 233.957031 0.472656 " fill-opacity="1" fill-rule="nonzero"/></g><g clip-path="url(#6acedb3850)"><path fill="#fbc561" d="M 308.648438 0.472656 L 190.652344 184.390625 L 188.742188 187.707031 L 340.125 0.472656 L 308.648438 0.472656 " fill-opacity="1" fill-rule="nonzero"/></g><g clip-path="url(#d0ec2c3b14)"><path fill="#fbc561" d="M 374.714844 333.511719 L 190.183594 190.039062 L 188.703125 189.023438 L 374.714844 369.648438 L 374.714844 333.511719 " fill-opacity="1" fill-rule="nonzero"/></g><g clip-path="url(#248a092dfe)"><path fill="#fbc561" d="M 235.6875 374.71875 L 188.910156 191.144531 L 188.445312 189.703125 L 214.367188 374.71875 L 235.6875 374.71875 " fill-opacity="1" fill-rule="nonzero"/></g><g clip-path="url(#a468ab3457)"><path fill="#fbc561" d="M 107.191406 374.71875 L 187.492188 190.222656 L 187.828125 189.308594 L 81.464844 374.71875 L 107.191406 374.71875 " fill-opacity="1" fill-rule="nonzero"/></g><g clip-path="url(#b77daf3e15)"><path fill="#fbc561" d="M 374.714844 186.566406 L 193.464844 188.363281 L 189.648438 188.589844 L 195.046875 189.449219 L 374.714844 209.082031 L 374.714844 186.566406 " fill-opacity="1" fill-rule="nonzero"/></g><g clip-path="url(#aecfd50bc9)"><path fill="#fbc561" d="M 374.714844 252.46875 L 189.027344 188.871094 L 374.714844 276.480469 Z M 374.714844 252.46875 " fill-opacity="1" fill-rule="nonzero"/></g><g clip-path="url(#e0b6586586)"><path fill="#fbc561" d="M 282.851562 374.71875 L 310.316406 374.71875 L 188.734375 189.679688 L 189.582031 191.574219 L 282.851562 374.71875 " fill-opacity="1" fill-rule="nonzero"/></g><g clip-path="url(#cb48b0de75)"><path fill="#fbc561" d="M 173.320312 374.71875 L 187.863281 190.164062 L 187.046875 193.535156 L 152.4375 374.71875 L 173.320312 374.71875 " fill-opacity="1" fill-rule="nonzero"/></g><g clip-path="url(#773e600880)"><path fill="#fbc561" d="M 188.507812 188.734375 L 188.6875 188.753906 L 188.367188 188.644531 L 188.394531 188.640625 L 188.332031 188.597656 L 188.378906 188.566406 L 188.503906 188.625 L 188.621094 188.601562 L 188.410156 188.542969 L 188.601562 188.421875 L 189.160156 188.507812 L 189.824219 188.394531 L 188.628906 188.410156 L 188.707031 188.363281 L 188.523438 188.410156 L 188.550781 188.414062 L 188.308594 188.515625 L 188.285156 188.507812 L 188.28125 188.515625 L 188.292969 188.523438 L 188.28125 188.535156 L 188.289062 188.566406 L 188.265625 188.546875 L 188.253906 188.558594 L 188.253906 188.554688 L 188.25 188.558594 L 188.210938 188.507812 L 188.214844 188.503906 L 188.199219 188.488281 L 188.210938 188.5 L 188.140625 188.472656 L 188.191406 188.527344 L 188.210938 188.507812 L 188.21875 188.535156 L 188.210938 188.539062 L 188.222656 188.554688 L 188.226562 188.542969 L 188.234375 188.570312 L 188.25 188.582031 L 188.246094 188.582031 L 188.25 188.59375 L 188.246094 188.601562 L 188.234375 188.597656 L 188.191406 188.679688 L 188.175781 188.660156 L 188.203125 188.597656 L 188.148438 188.644531 L 188.109375 188.621094 L 188.152344 188.570312 L 188.132812 188.566406 L 188.097656 188.578125 L 188.105469 188.554688 L 188.078125 188.542969 L 188.132812 188.46875 L 188.136719 188.464844 L 188.070312 188.523438 L 188.054688 188.476562 L 188.042969 188.480469 L 188.050781 188.472656 L 188.046875 188.449219 L 188.015625 188.492188 L 188.019531 188.492188 L 188.015625 188.492188 L 188.03125 188.53125 L 188 188.519531 L 187.996094 188.542969 L 187.992188 188.535156 L 187.992188 188.539062 L 187.992188 188.535156 L 187.992188 188.542969 L 187.964844 188.523438 L 187.96875 188.519531 L 187.964844 188.507812 L 187.960938 188.515625 L 187.839844 188.464844 L 187.871094 188.457031 L 187.816406 188.417969 L 187.707031 188.417969 L 187.445312 188.328125 L 187.605469 188.417969 L 185.777344 188.4375 L 187.265625 188.597656 L 187.738281 188.488281 L 187.863281 188.554688 L 187.652344 188.640625 L 187.734375 188.652344 L 187.890625 188.566406 L 187.949219 188.597656 L 187.851562 188.660156 L 187.902344 188.671875 L 187.472656 188.796875 L 187.820312 188.738281 L 187.105469 189.371094 L 187.695312 188.996094 L 185.898438 190.429688 L 0.472656 353.4375 L 0.472656 374.71875 L 18.074219 374.71875 L 187.25 189.5625 L 187.652344 189.0625 L 187.53125 189.253906 L 187.851562 188.894531 L 187.9375 188.84375 L 187.878906 189.171875 L 187.964844 188.949219 L 188.015625 188.796875 L 188.113281 188.734375 L 188.085938 188.695312 L 188.105469 188.691406 L 188.132812 188.71875 L 188.136719 188.71875 L 188.121094 188.695312 L 188.152344 188.710938 L 188.160156 188.695312 L 188.171875 188.699219 L 188.1875 188.6875 L 188.179688 188.699219 L 188.21875 188.703125 L 188.210938 188.738281 L 188.257812 188.765625 L 188.257812 188.71875 L 188.234375 188.703125 L 188.257812 188.710938 L 188.257812 188.671875 L 188.222656 188.695312 L 188.195312 188.679688 L 188.210938 188.675781 L 188.199219 188.675781 L 188.226562 188.660156 L 188.226562 188.671875 L 188.265625 188.632812 L 188.28125 188.660156 L 188.273438 188.632812 L 188.285156 188.625 L 188.304688 188.660156 L 188.316406 188.652344 L 188.332031 188.671875 L 188.304688 188.671875 L 188.371094 188.71875 L 189.175781 189.253906 L 188.507812 188.734375 " fill-opacity="1" fill-rule="nonzero"/></g><path fill="#fbc561" d="M 188.066406 189.339844 L 188.21875 191.050781 L 188.253906 189.09375 L 188.179688 188.867188 L 188.066406 189.339844 " fill-opacity="1" fill-rule="nonzero"/><path fill="#fbc561" d="M 188.140625 188.457031 L 188.140625 188.453125 L 188.148438 188.453125 L 188.140625 188.449219 L 188.152344 188.4375 L 188.132812 188.445312 L 188.121094 188.4375 L 188.152344 188.421875 L 188.082031 188.40625 L 188.136719 188.394531 L 188.105469 188.359375 L 188.074219 188.410156 L 188.082031 188.40625 L 188.089844 188.414062 L 188.074219 188.414062 L 188.132812 188.449219 L 188.121094 188.449219 L 188.136719 188.464844 L 188.140625 188.457031 " fill-opacity="1" fill-rule="nonzero"/></svg>