<svg xmlns="http://www.w3.org/2000/svg" xmlns:xlink="http://www.w3.org/1999/xlink" width="500" zoomAndPan="magnify" viewBox="0 0 375 374.999991" height="500" preserveAspectRatio="xMidYMid meet" version="1.0"><defs><clipPath id="678a48d551"><path d="M 171.878906 174.253906 L 203.378906 174.253906 L 203.378906 205.753906 L 171.878906 205.753906 Z M 171.878906 174.253906 " clip-rule="nonzero"/></clipPath></defs><g clip-path="url(#678a48d551)"><path fill="#000000" d="M 201.824219 186.339844 L 199.71875 185.816406 L 199.140625 184.417969 L 200.257812 182.558594 C 200.5 182.152344 200.59375 181.71875 200.535156 181.25 C 200.476562 180.78125 200.28125 180.378906 199.949219 180.046875 L 197.585938 177.6875 C 197.253906 177.351562 196.855469 177.15625 196.386719 177.097656 C 195.917969 177.042969 195.480469 177.132812 195.078125 177.378906 L 193.214844 178.496094 L 191.820312 177.914062 L 191.292969 175.808594 C 191.179688 175.351562 190.9375 174.976562 190.566406 174.6875 C 190.191406 174.398438 189.769531 174.253906 189.300781 174.253906 L 185.960938 174.253906 C 185.488281 174.253906 185.066406 174.398438 184.695312 174.6875 C 184.324219 174.980469 184.082031 175.351562 183.96875 175.808594 L 183.441406 177.914062 L 182.046875 178.496094 L 180.183594 177.378906 C 179.78125 177.132812 179.34375 177.042969 178.875 177.101562 C 178.410156 177.15625 178.007812 177.351562 177.675781 177.6875 L 175.3125 180.046875 C 174.980469 180.378906 174.78125 180.78125 174.726562 181.25 C 174.667969 181.71875 174.761719 182.152344 175.003906 182.558594 L 176.121094 184.417969 L 175.542969 185.816406 L 173.4375 186.339844 C 172.980469 186.453125 172.605469 186.699219 172.316406 187.070312 C 172.023438 187.441406 171.878906 187.863281 171.878906 188.335938 L 171.878906 191.671875 C 171.878906 192.144531 172.023438 192.566406 172.316406 192.9375 C 172.605469 193.308594 172.980469 193.550781 173.4375 193.667969 L 175.542969 194.191406 L 176.121094 195.589844 L 175.003906 197.449219 C 174.761719 197.855469 174.667969 198.289062 174.726562 198.757812 C 174.78125 199.226562 174.976562 199.625 175.3125 199.960938 L 177.675781 202.320312 C 178.007812 202.65625 178.40625 202.851562 178.875 202.910156 C 179.34375 202.96875 179.777344 202.875 180.183594 202.628906 L 182.042969 201.511719 L 183.441406 202.09375 L 183.964844 204.199219 C 184.082031 204.65625 184.324219 205.03125 184.695312 205.320312 C 185.066406 205.609375 185.488281 205.753906 185.960938 205.753906 L 189.300781 205.753906 C 189.769531 205.753906 190.191406 205.609375 190.566406 205.320312 C 190.9375 205.027344 191.179688 204.65625 191.292969 204.199219 L 191.820312 202.09375 L 193.214844 201.511719 L 195.074219 202.628906 C 195.480469 202.875 195.917969 202.96875 196.382812 202.910156 C 196.851562 202.851562 197.253906 202.65625 197.585938 202.320312 L 199.949219 199.960938 C 200.28125 199.628906 200.476562 199.226562 200.535156 198.757812 C 200.59375 198.289062 200.5 197.855469 200.257812 197.449219 L 199.140625 195.589844 L 199.71875 194.191406 L 201.824219 193.667969 C 202.28125 193.550781 202.65625 193.308594 202.945312 192.9375 C 203.234375 192.566406 203.378906 192.144531 203.378906 191.671875 L 203.378906 188.335938 C 203.378906 187.863281 203.234375 187.441406 202.945312 187.070312 C 202.65625 186.699219 202.28125 186.453125 201.824219 186.339844 Z M 202.011719 191.671875 C 202.011719 191.832031 201.960938 191.972656 201.867188 192.09375 C 201.769531 192.21875 201.644531 192.300781 201.492188 192.339844 L 199.050781 192.949219 C 198.828125 193.003906 198.671875 193.136719 198.585938 193.351562 L 197.742188 195.382812 C 197.65625 195.597656 197.671875 195.800781 197.789062 196 L 199.082031 198.15625 C 199.164062 198.289062 199.195312 198.433594 199.175781 198.589844 C 199.15625 198.746094 199.089844 198.878906 198.980469 198.992188 L 196.617188 201.351562 C 196.507812 201.464844 196.375 201.53125 196.21875 201.550781 C 196.0625 201.566406 195.914062 201.539062 195.78125 201.457031 L 193.625 200.160156 C 193.425781 200.042969 193.222656 200.027344 193.007812 200.117188 L 190.976562 200.957031 C 190.765625 201.046875 190.628906 201.203125 190.574219 201.425781 L 189.964844 203.867188 C 189.925781 204.019531 189.84375 204.144531 189.722656 204.238281 C 189.597656 204.335938 189.457031 204.382812 189.300781 204.382812 L 185.960938 204.382812 C 185.804688 204.382812 185.664062 204.335938 185.539062 204.238281 C 185.414062 204.144531 185.335938 204.019531 185.296875 203.867188 L 184.6875 201.425781 C 184.628906 201.203125 184.496094 201.046875 184.285156 200.957031 L 182.25 200.117188 C 182.167969 200.082031 182.078125 200.0625 181.988281 200.0625 C 181.863281 200.0625 181.746094 200.097656 181.636719 200.160156 L 179.480469 201.457031 C 179.34375 201.535156 179.199219 201.566406 179.042969 201.550781 C 178.886719 201.53125 178.753906 201.464844 178.644531 201.351562 L 176.28125 198.992188 C 176.167969 198.878906 176.105469 198.746094 176.085938 198.589844 C 176.066406 198.433594 176.097656 198.289062 176.175781 198.15625 L 177.472656 196 C 177.589844 195.800781 177.605469 195.597656 177.519531 195.382812 L 176.675781 193.351562 C 176.585938 193.136719 176.429688 193.003906 176.207031 192.949219 L 173.769531 192.339844 C 173.617188 192.300781 173.492188 192.21875 173.394531 192.09375 C 173.296875 191.972656 173.25 191.832031 173.25 191.671875 L 173.25 188.335938 C 173.25 188.175781 173.296875 188.035156 173.394531 187.914062 C 173.492188 187.789062 173.617188 187.707031 173.769531 187.667969 L 176.207031 187.058594 C 176.429688 187.003906 176.585938 186.871094 176.675781 186.65625 L 177.515625 184.625 C 177.605469 184.410156 177.589844 184.207031 177.472656 184.007812 L 176.175781 181.851562 C 176.097656 181.71875 176.066406 181.574219 176.085938 181.417969 C 176.105469 181.261719 176.167969 181.128906 176.28125 181.015625 L 178.644531 178.65625 C 178.753906 178.542969 178.886719 178.476562 179.042969 178.457031 C 179.199219 178.441406 179.34375 178.46875 179.480469 178.550781 L 181.636719 179.847656 C 181.835938 179.964844 182.039062 179.980469 182.25 179.890625 L 184.285156 179.050781 C 184.496094 178.960938 184.628906 178.804688 184.6875 178.582031 L 185.296875 176.140625 C 185.335938 175.988281 185.414062 175.863281 185.539062 175.769531 C 185.664062 175.671875 185.804688 175.621094 185.960938 175.625 L 189.300781 175.625 C 189.457031 175.625 189.597656 175.671875 189.722656 175.769531 C 189.84375 175.863281 189.925781 175.988281 189.964844 176.140625 L 190.574219 178.582031 C 190.628906 178.804688 190.765625 178.960938 190.976562 179.050781 L 193.007812 179.890625 C 193.222656 179.980469 193.425781 179.964844 193.625 179.847656 L 195.78125 178.550781 C 195.917969 178.472656 196.0625 178.441406 196.21875 178.460938 C 196.375 178.476562 196.507812 178.542969 196.617188 178.65625 L 198.980469 181.015625 C 199.089844 181.128906 199.15625 181.261719 199.175781 181.417969 C 199.195312 181.574219 199.164062 181.71875 199.082031 181.851562 L 197.789062 184.007812 C 197.671875 184.207031 197.65625 184.410156 197.742188 184.625 L 198.585938 186.65625 C 198.671875 186.871094 198.828125 187.003906 199.050781 187.058594 L 201.492188 187.667969 C 201.644531 187.707031 201.769531 187.789062 201.867188 187.914062 C 201.960938 188.035156 202.011719 188.175781 202.011719 188.332031 Z M 202.011719 191.671875 " fill-opacity="1" fill-rule="nonzero"/></g><path fill="#000000" d="M 187.628906 182.472656 C 187.136719 182.472656 186.644531 182.519531 186.160156 182.617188 C 185.675781 182.710938 185.203125 182.855469 184.746094 183.042969 C 184.289062 183.234375 183.855469 183.464844 183.445312 183.742188 C 183.035156 184.015625 182.652344 184.328125 182.304688 184.675781 C 181.953125 185.027344 181.640625 185.40625 181.367188 185.820312 C 181.09375 186.230469 180.859375 186.664062 180.671875 187.121094 C 180.480469 187.578125 180.339844 188.050781 180.242188 188.535156 C 180.144531 189.019531 180.097656 189.507812 180.097656 190.003906 C 180.097656 190.5 180.144531 190.988281 180.242188 191.472656 C 180.339844 191.957031 180.480469 192.429688 180.671875 192.886719 C 180.859375 193.34375 181.09375 193.777344 181.367188 194.1875 C 181.640625 194.601562 181.953125 194.980469 182.304688 195.332031 C 182.652344 195.679688 183.035156 195.992188 183.445312 196.265625 C 183.855469 196.542969 184.289062 196.773438 184.746094 196.964844 C 185.203125 197.152344 185.675781 197.296875 186.160156 197.390625 C 186.644531 197.488281 187.136719 197.535156 187.628906 197.535156 C 188.125 197.535156 188.613281 197.488281 189.101562 197.390625 C 189.585938 197.296875 190.054688 197.152344 190.511719 196.964844 C 190.96875 196.773438 191.402344 196.542969 191.816406 196.265625 C 192.226562 195.992188 192.605469 195.679688 192.957031 195.332031 C 193.304688 194.980469 193.617188 194.601562 193.894531 194.1875 C 194.167969 193.777344 194.398438 193.34375 194.589844 192.886719 C 194.777344 192.429688 194.921875 191.957031 195.019531 191.472656 C 195.113281 190.988281 195.164062 190.5 195.164062 190.003906 C 195.164062 189.507812 195.113281 189.019531 195.015625 188.535156 C 194.917969 188.050781 194.777344 187.578125 194.585938 187.121094 C 194.398438 186.664062 194.164062 186.230469 193.890625 185.820312 C 193.617188 185.410156 193.304688 185.03125 192.953125 184.679688 C 192.605469 184.332031 192.222656 184.019531 191.8125 183.742188 C 191.402344 183.46875 190.96875 183.238281 190.511719 183.046875 C 190.054688 182.859375 189.585938 182.714844 189.097656 182.617188 C 188.613281 182.519531 188.125 182.472656 187.628906 182.472656 Z M 187.628906 196.167969 C 187.226562 196.167969 186.824219 196.128906 186.429688 196.046875 C 186.03125 195.96875 185.644531 195.851562 185.273438 195.699219 C 184.898438 195.542969 184.542969 195.351562 184.207031 195.128906 C 183.871094 194.902344 183.558594 194.648438 183.273438 194.363281 C 182.984375 194.074219 182.730469 193.765625 182.507812 193.429688 C 182.28125 193.089844 182.089844 192.734375 181.9375 192.363281 C 181.78125 191.988281 181.664062 191.601562 181.585938 191.207031 C 181.507812 190.808594 181.46875 190.410156 181.46875 190.003906 C 181.46875 189.597656 181.507812 189.199219 181.585938 188.800781 C 181.664062 188.40625 181.78125 188.019531 181.9375 187.644531 C 182.089844 187.269531 182.28125 186.917969 182.507812 186.578125 C 182.730469 186.242188 182.984375 185.933594 183.273438 185.644531 C 183.558594 185.359375 183.871094 185.105469 184.207031 184.878906 C 184.542969 184.65625 184.898438 184.464844 185.273438 184.308594 C 185.644531 184.15625 186.03125 184.039062 186.429688 183.960938 C 186.824219 183.878906 187.226562 183.839844 187.628906 183.839844 C 188.035156 183.839844 188.4375 183.878906 188.832031 183.960938 C 189.230469 184.039062 189.613281 184.15625 189.988281 184.308594 C 190.363281 184.464844 190.71875 184.65625 191.054688 184.878906 C 191.390625 185.105469 191.703125 185.359375 191.988281 185.644531 C 192.273438 185.933594 192.53125 186.242188 192.753906 186.578125 C 192.980469 186.917969 193.167969 187.269531 193.324219 187.644531 C 193.480469 188.019531 193.597656 188.40625 193.675781 188.800781 C 193.753906 189.199219 193.792969 189.597656 193.792969 190.003906 C 193.792969 190.410156 193.753906 190.808594 193.675781 191.207031 C 193.59375 191.601562 193.476562 191.988281 193.324219 192.359375 C 193.167969 192.734375 192.976562 193.089844 192.753906 193.425781 C 192.527344 193.761719 192.273438 194.074219 191.984375 194.359375 C 191.699219 194.644531 191.390625 194.902344 191.054688 195.125 C 190.714844 195.351562 190.363281 195.539062 189.988281 195.695312 C 189.613281 195.851562 189.230469 195.96875 188.832031 196.046875 C 188.433594 196.125 188.035156 196.167969 187.628906 196.167969 Z M 187.628906 196.167969 " fill-opacity="1" fill-rule="nonzero"/><path fill="#737373" d="M 306.945312 222.871094 L 251.171875 278.644531 L 302.394531 329.871094 L 314.910156 317.355469 L 276.203125 278.644531 L 306.945312 247.902344 L 357.128906 298.085938 L 357.128906 362.085938 L 289.808594 362.085938 L 200.964844 272.199219 L 374.835938 101.40625 L 374.835938 0 L 282.695312 0 L 214.808594 67.890625 L 270.585938 123.667969 L 321.808594 72.417969 L 309.292969 59.902344 L 270.585938 98.609375 L 239.839844 67.867188 L 290.023438 17.683594 L 357.105469 17.683594 L 357.105469 94.058594 L 270.039062 178.019531 L 100.148438 0 L 0.117188 0 L 0.117188 98.539062 C 0.117188 98.539062 68.003906 166.429688 68.003906 166.429688 L 123.78125 110.652344 L 72.53125 59.425781 L 60.015625 71.941406 L 98.726562 110.652344 L 67.980469 141.398438 L 17.824219 91.214844 L 17.824219 17.707031 L 92.800781 17.707031 L 174.582031 107.59375 L 0.117188 278.386719 L 0.117188 379.792969 L 92.824219 379.792969 L 160.714844 311.902344 L 104.9375 256.128906 L 53.710938 307.375 L 66.226562 319.890625 L 104.9375 281.183594 L 135.683594 311.925781 L 85.5 362.109375 L 17.824219 362.109375 L 17.824219 285.734375 L 105.484375 201.773438 L 282.484375 379.816406 L 374.835938 379.816406 L 374.835938 290.78125 L 306.945312 222.894531 Z M 187.121094 120.132812 L 257.570312 190.585938 L 188.449219 259.707031 L 118 189.257812 Z M 187.121094 120.132812 " fill-opacity="1" fill-rule="nonzero"/><path fill="#545454" d="M 154.777344 191.636719 L 189.613281 156.8125 L 224.4375 191.648438 L 189.601562 226.472656 Z M 154.777344 191.636719 " fill-opacity="1" fill-rule="nonzero"/><path fill="#a6a6a6" d="M 233.273438 0 L 189.609375 43.640625 L 145.96875 0 Z M 233.273438 0 " fill-opacity="1" fill-rule="nonzero"/><path fill="#a6a6a6" d="M 233.273438 379.816406 L 145.96875 379.816406 L 189.609375 336.082031 Z M 233.273438 379.816406 " fill-opacity="1" fill-rule="nonzero"/><path fill="#a6a6a6" d="M 374.835938 150.878906 L 374.835938 238.253906 L 331.101562 194.613281 Z M 374.835938 150.878906 " fill-opacity="1" fill-rule="nonzero"/><path fill="#a6a6a6" d="M 43.804688 194.613281 L 0.140625 238.253906 L 0.140625 150.878906 Z M 43.804688 194.613281 " fill-opacity="1" fill-rule="nonzero"/></svg>